ply
format ascii 1.0
comment modified by xformply
comment modified by boundply
comment modified by xformply
comment modified by normalsply
element vertex 116
property float32 x
property float32 y
property float32 z
property float32 nx
property float32 ny
property float32 nz
element face 190
property list uint8 int32 vertex_indices
end_header
-0.00512635 0.0319864 0.0090241 -0.707108 -0.2357 0.666666 
-0.0255297 0.011583 0.0090241 -0.288674 0.866025 0.40825 
-0.0309948 0.0170482 0.0090241 0.70711 0.235698 0.666665 
-0.0105915 0.0374516 0.0090241 0.288676 -0.866025 0.408249 
-0.00512635 0.0319864 0.0127297 -0.707107 0.235702 -0.666666 
-0.0105915 0.0374516 0.0127297 -0.288678 -0.866024 -0.408249 
-0.0309948 0.0170482 0.0127297 0.707108 -0.235703 -0.666665 
-0.0255297 0.011583 0.0127297 0.288681 0.866023 -0.40825 
0.0350944 -0.00934554 -0.0573081 -0.676365 -0.613517 0.407587 
0.00924412 0.0051739 -0.0469422 -0.290751 0.107193 0.950775 
0.00924412 0.0051739 -0.0428409 -0.556326 -0.212161 -0.803424 
0.0350944 -0.00934554 -0.0550129 -0.93639 0.100007 -0.33641 
0.0294395 0.0269128 -0.0573899 -0.668431 -0.0946158 0.737731 
0.0294395 0.0269128 -0.0550947 -0.821765 0.0274241 -0.569166 
0.0260022 0.0303501 -0.0573899 0.390159 -0.826019 0.406779 
0.0260022 0.0303501 -0.0550947 -0.357827 -0.870983 -0.336673 
0.00403561 0.00927208 -0.0469422 -0.128556 -0.14875 0.980483 
0.00403561 0.00927208 -0.0428409 0.0241911 -0.438288 -0.898509 
-0.010478 0.0362269 -0.0573081 -0.103202 -0.660361 0.743823 
-0.010478 0.0362269 -0.0550129 -0.30344 -0.766319 -0.566286 
-0.0149133 0.0340092 -0.0573081 0.905485 0.116882 0.407964 
-0.0149133 0.0340092 -0.0550129 0.713875 -0.613252 -0.33809 
-0.00161162 0.00672618 -0.0469422 0.067965 -0.213248 0.974631 
-0.00161162 0.00672618 -0.0428409 0.536481 -0.117944 -0.83563 
-0.0315457 0.00141 -0.0573081 0.837935 -0.332396 0.432871 
-0.0315457 0.00141 -0.0550129 0.650983 -0.671279 -0.354409 
-0.0307695 -0.00357969 -0.0573081 0.036548 0.732535 0.679747 
-0.0307695 -0.00357969 -0.0550129 0.742625 0.405587 -0.532924 
-0.000613771 0.000191227 -0.0469422 0.284815 0.00641042 0.958561 
-0.000613771 0.000191227 -0.0428409 0.219126 0.473029 -0.853362 
-0.00460127 -0.0295259 -0.0573081 0.575929 0.694045 0.431982 
-0.00460127 -0.0295259 -0.0550129 0.838411 0.415667 -0.352544 
0.000166614 -0.0303022 -0.0573081 -0.685107 0.260787 0.680161 
0.000166614 -0.0303022 -0.0550129 -0.155515 0.833066 -0.530863 
0.0059213 -0.000806734 -0.0469422 0.0313357 0.361334 0.93191 
0.0059213 -0.000806734 -0.0428409 -0.388852 0.39682 -0.831461 
0.0326549 -0.0137809 -0.0573081 -0.289714 0.605969 0.740856 
0.0326549 -0.0137809 -0.0550129 -0.202341 0.802823 -0.560833 
0.0382076 -0.0113475 0.0090241 -0.707099 -0.235714 0.666671 
0.0178041 -0.0317508 0.0090241 -0.288672 0.866027 0.408248 
0.012339 -0.0262857 0.0090241 0.707107 0.235703 0.666666 
0.0327422 -0.00588235 0.0090241 0.288682 -0.866024 0.408246 
0.0382076 -0.0113475 0.0127297 -0.707103 0.235701 -0.666671 
0.0327422 -0.00588235 0.0127297 -0.288659 -0.866032 -0.408246 
0.012339 -0.0262857 0.0127297 0.707108 -0.2357 -0.666666 
0.0178041 -0.0317508 0.0127297 0.288676 0.866026 -0.408248 
0.000845015 0.00682493 -0.0428589 0.965927 -0.258815 0 
0.00245209 0.000827339 -0.0428589 -0.258819 0.965926 0 
0.00245209 0.000827339 -0.0154605 0.707104 0.70711 0 
0.000845015 0.00682493 -0.0154605 0.258816 -0.965927 0 
0.00684261 0.00521786 -0.0428589 -0.707109 -0.707105 0 
0.00684261 0.00521786 -0.0154605 -0.965926 0.258819 0 
0.000354737 -0.0288605 -0.00745388 0.286477 0.885347 0.366184 
-0.000103071 -0.0365124 0.0114048 -0.0120717 0.965385 0.260548 
-0.0361577 -0.000457603 0.0114048 0.974883 -0.0172251 0.222049 
-0.0285058 2.01166e-07 -0.00745388 0.880009 -0.326462 0.344975 
-0.00287748 -0.0383779 0.029427 0.0460203 0.990836 -0.126988 
-0.0380233 -0.00323213 0.029427 0.977167 0.0991098 -0.187941 
-0.0104221 -0.0295317 0.0472739 -0.0163302 0.742687 -0.66944 
-0.0291771 -0.0107768 0.0472739 0.660842 0.360701 -0.658166 
0.00554193 -0.0208861 -0.00666501 -0.910263 -0.367796 -0.190123 
-0.0205316 0.0051874 -0.00666501 -0.367435 -0.910426 -0.190044 
-0.028648 0.00434386 0.0130685 -0.367055 -0.908912 -0.197865 
0.0046985 -0.0290024 0.0130685 -0.907456 -0.366386 -0.205634 
-0.0310153 0.00106757 0.0310486 -0.364302 -0.899337 -0.241822 
0.0014221 -0.0313699 0.0310486 -0.889339 -0.373972 -0.263099 
-0.024167 -0.00725165 0.0472938 -0.399006 -0.812467 -0.425078 
-0.006897 -0.0245216 0.0472938 -0.670548 -0.4244 -0.608482 
-0.0313319 0.00436819 0.0127092 0.375269 -0.926852 0.0108519 
-0.0233067 0.00519922 -0.00683071 0.239157 -0.969311 0.0569211 
-0.0336961 0.00109513 0.0306683 0.397505 -0.862451 -0.313318 
-0.0262826 -0.00788218 0.0486101 0.162872 -0.502286 -0.849224 
-0.00752765 -0.026637 0.0486101 -0.460012 0.166106 -0.872237 
0.00144977 -0.0340508 0.0306683 -0.841734 0.404064 -0.358074 
0.00472283 -0.0316865 0.0127092 -0.925492 0.378373 -0.0172689 
0.00555387 -0.0236613 -0.00683071 -0.866045 0.473347 0.16096 
0.0403919 0.00928469 -0.0143624 -0.721816 -0.40308 0.562591 
0.0386262 -0.00355191 -0.0154431 -0.661824 0.217098 0.717536 
-0.00319727 0.0382716 -0.0154431 0.33624 -0.611516 0.716234 
0.00963933 0.0400373 -0.0143624 -0.170568 -0.927075 0.333823 
0.0141153 -0.0280629 -0.0154431 -0.343714 0.605198 0.71805 
-0.0277083 0.0137607 -0.0154431 0.659099 -0.220896 0.718883 
0.00127872 -0.0298284 -0.0145803 0.166499 0.926947 0.336226 
-0.029474 0.000924077 -0.0145803 0.719757 0.398223 0.568655 
0.0389488 0.00880501 -0.00746481 -0.484172 -0.129276 -0.86537 
0.00915965 0.0385941 -0.00746481 -0.296289 -0.499163 -0.814278 
-0.00223055 0.0373049 -0.00652643 0.0801066 -0.397588 -0.914061 
0.0376596 -0.00258519 -0.00652643 -0.345241 0.178207 -0.92144 
-0.0267414 0.012794 -0.00652643 0.341634 -0.182479 -0.921948 
0.0131486 -0.0270961 -0.00652643 -0.0891231 0.390433 -0.916307 
-0.0280293 0.00140621 -0.00727535 0.475589 0.117625 -0.871768 
0.00176086 -0.0283839 -0.00727535 0.287337 0.491935 -0.82185 
0.00963933 0.0400373 -0.00897436 -0.333227 -0.862962 -0.37981 
0.0403919 0.00928469 -0.00897436 -0.874044 -0.282203 -0.395486 
-0.00319727 0.0382716 -0.0078935 0.382936 -0.842386 -0.379138 
-0.0277083 0.0137607 -0.0078935 0.833269 -0.405579 -0.375724 
-0.029474 0.000924077 -0.00875645 0.872908 0.278801 -0.400377 
0.00127872 -0.0298284 -0.00875645 0.329312 0.862554 -0.384128 
0.0141153 -0.0280629 -0.0078935 -0.384569 0.841366 -0.379749 
0.0386262 -0.00355191 -0.0078935 -0.835581 0.402168 -0.374252 
-0.0146377 0.0252134 -0.00666311 -0.654623 -0.217322 0.724044 
-0.0193639 0.0204871 -0.00666311 -0.294068 0.870347 0.394995 
-0.020088 0.0212111 -0.00665598 0.619462 0.199417 0.759276 
-0.0153617 0.0259374 -0.00665598 0.268768 -0.786685 0.555779 
-0.0144262 0.02987 0.0090309 -0.302002 -0.920331 0.248567 
-0.0137022 0.0291461 0.0090514 -0.946316 0.322325 -0.0243317 
-0.0240207 0.0202757 0.0090309 0.925335 -0.313469 0.213288 
-0.0232967 0.0195516 0.0090514 0.306893 0.942395 0.133072 
0.0255983 -0.0150224 -0.00666311 -0.217306 -0.654635 0.724038 
0.0215959 -0.0204727 -0.00665598 0.199453 0.619448 0.759278 
0.020872 -0.0197487 -0.00666311 0.870348 -0.294063 0.394995 
0.0263223 -0.0157465 -0.00665598 -0.786681 0.268794 0.555772 
0.0302549 -0.014811 0.0090309 -0.920326 -0.302024 0.248561 
0.0295308 -0.014087 0.0090514 0.322352 -0.946307 -0.024339 
0.0206604 -0.0244053 0.0090309 -0.313427 0.92535 0.213286 
0.0199365 -0.0236813 0.0090514 0.942414 0.306841 0.133061 
3 0 1 2 
3 2 3 0 
3 4 5 6 
3 6 7 4 
3 0 3 5 
3 5 4 0 
3 3 2 6 
3 6 5 3 
3 2 1 7 
3 7 6 2 
3 1 0 4 
3 4 7 1 
3 8 9 10 
3 8 10 11 
3 9 12 13 
3 9 13 10 
3 12 14 15 
3 12 15 13 
3 14 16 17 
3 14 17 15 
3 16 18 19 
3 16 19 17 
3 18 20 21 
3 18 21 19 
3 20 22 23 
3 20 23 21 
3 22 24 25 
3 22 25 23 
3 24 26 27 
3 24 27 25 
3 26 28 29 
3 26 29 27 
3 28 30 31 
3 28 31 29 
3 30 32 33 
3 30 33 31 
3 32 34 35 
3 32 35 33 
3 34 36 37 
3 34 37 35 
3 36 8 11 
3 36 11 37 
3 36 9 8 
3 34 9 36 
3 18 22 20 
3 16 22 18 
3 12 16 14 
3 9 16 12 
3 22 26 24 
3 22 28 26 
3 28 32 30 
3 28 34 32 
3 34 16 9 
3 28 16 34 
3 22 16 28 
3 37 11 10 
3 35 37 10 
3 19 21 23 
3 17 19 23 
3 13 15 17 
3 10 13 17 
3 23 25 27 
3 23 27 29 
3 29 31 33 
3 29 33 35 
3 35 10 17 
3 29 35 17 
3 23 29 17 
3 38 39 40 
3 40 41 38 
3 42 43 44 
3 44 45 42 
3 38 41 43 
3 43 42 38 
3 41 40 44 
3 44 43 41 
3 40 39 45 
3 45 44 40 
3 39 38 42 
3 42 45 39 
3 46 47 48 
3 46 48 49 
3 47 50 51 
3 47 51 48 
3 50 46 49 
3 50 49 51 
3 52 53 54 
3 54 55 52 
3 53 56 57 
3 57 54 53 
3 56 58 59 
3 59 57 56 
3 60 61 62 
3 62 63 60 
3 63 62 64 
3 64 65 63 
3 65 64 66 
3 66 67 65 
3 55 54 68 
3 68 69 55 
3 54 57 70 
3 70 68 54 
3 57 59 71 
3 71 70 57 
3 59 58 72 
3 72 71 59 
3 58 56 73 
3 73 72 58 
3 56 53 74 
3 74 73 56 
3 53 52 75 
3 75 74 53 
3 76 77 78 
3 78 79 76 
3 77 80 81 
3 81 78 77 
3 80 82 83 
3 83 81 80 
3 84 85 86 
3 86 87 84 
3 87 86 88 
3 88 89 87 
3 89 88 90 
3 90 91 89 
3 76 79 92 
3 92 93 76 
3 79 78 94 
3 94 92 79 
3 78 81 95 
3 95 94 78 
3 81 83 96 
3 96 95 81 
3 83 82 97 
3 97 96 83 
3 82 80 98 
3 98 97 82 
3 80 77 99 
3 99 98 80 
3 77 76 93 
3 93 99 77 
3 84 93 85 
3 92 85 93 
3 85 92 86 
3 94 86 92 
3 93 84 99 
3 87 99 84 
3 86 94 88 
3 95 88 94 
3 99 87 98 
3 89 98 87 
3 88 95 90 
3 96 90 95 
3 97 91 96 
3 90 96 91 
3 98 89 97 
3 91 97 89 
3 61 69 62 
3 68 62 69 
3 75 60 74 
3 63 74 60 
3 62 68 64 
3 70 64 68 
3 74 63 73 
3 65 73 63 
3 64 70 66 
3 71 66 70 
3 72 67 71 
3 66 71 67 
3 73 65 72 
3 67 72 65 
3 100 101 102 
3 102 103 100 
3 100 103 104 
3 104 105 100 
3 103 102 106 
3 106 104 103 
3 102 101 107 
3 107 106 102 
3 101 100 105 
3 105 107 101 
3 108 109 110 
3 109 108 111 
3 108 112 111 
3 112 108 113 
3 111 114 109 
3 114 111 112 
3 109 115 110 
3 115 109 114 
3 110 113 108 
3 113 110 115 
