ply
format ascii 1.0
comment modified by boundply
comment modified by xformply
element vertex 116
property float32 x
property float32 y
property float32 z
element face 190
property list uint8 int32 vertex_indices
end_header
-0.119069 0.587863 0.253095 
-0.504038 0.202893 0.253095 
-0.607152 0.306011 0.253095 
-0.222185 0.690979 0.253095 
-0.119069 0.587863 0.323013 
-0.222185 0.690979 0.323013 
-0.607152 0.306011 0.323013 
-0.504038 0.202893 0.323013 
0.639813 -0.191985 -0.998457 
0.152072 0.0819663 -0.802874 
0.152072 0.0819663 -0.72549 
0.639813 -0.191985 -0.955151 
0.533116 0.492135 -1 
0.533116 0.492135 -0.956694 
0.468261 0.556989 -1 
0.468261 0.556989 -0.956694 
0.0537979 0.159291 -0.802874 
0.0537979 0.159291 -0.72549 
-0.220044 0.667872 -0.998457 
-0.220044 0.667872 -0.955151 
-0.303728 0.62603 -0.998457 
-0.303728 0.62603 -0.955151 
-0.0527536 0.111255 -0.802874 
-0.0527536 0.111255 -0.72549 
-0.617548 0.0109496 -0.998457 
-0.617548 0.0109496 -0.955151 
-0.602902 -0.0831957 -0.998457 
-0.602902 -0.0831957 -0.955151 
-0.0339263 -0.0120463 -0.802874 
-0.0339263 -0.0120463 -0.72549 
-0.109162 -0.572747 -0.998457 
-0.109162 -0.572747 -0.955151 
-0.0192021 -0.587394 -0.998457 
-0.0192021 -0.587394 -0.955151 
0.0893769 -0.0308757 -0.802874 
0.0893769 -0.0308757 -0.72549 
0.593785 -0.275672 -0.998457 
0.593785 -0.275672 -0.955151 
0.698552 -0.229758 0.253095 
0.313581 -0.614726 0.253095 
0.210465 -0.51161 0.253095 
0.595432 -0.126642 0.253095 
0.698552 -0.229758 0.323013 
0.595432 -0.126642 0.323013 
0.210465 -0.51161 0.323013 
0.313581 -0.614726 0.323013 
-0.00640212 0.113118 -0.725829 
0.0239201 -4.42256e-05 -0.725829 
0.0239201 -4.42256e-05 -0.208878 
-0.00640209 0.113118 -0.208878 
0.10676 0.0827959 -0.725829 
0.10676 0.0827959 -0.208878 
-0.0156526 -0.560192 -0.0578105 
-0.0242905 -0.704567 0.298013 
-0.704567 -0.0242884 0.298013 
-0.560192 -0.0156505 -0.0578105 
-0.0766378 -0.739766 0.638055 
-0.739766 -0.0766379 0.638055 
-0.218989 -0.572857 0.974789 
-0.572857 -0.218989 0.974789 
0.082219 -0.409733 -0.0429263 
-0.409735 0.082221 -0.0429263 
-0.562874 0.0663053 0.329404 
0.0663053 -0.562869 0.329404 
-0.607539 0.00448844 0.668651 
0.00448644 -0.607539 0.668651 
-0.478326 -0.152478 0.975164 
-0.152478 -0.478326 0.975164 
-0.613513 0.0667642 0.322625 
-0.462095 0.0824443 -0.0460526 
-0.658122 0.00500843 0.661476 
-0.518244 -0.164375 1 
-0.164377 -0.51824 1 
0.00500852 -0.658122 0.661476 
0.0667642 -0.613513 0.322625 
0.0824443 -0.462095 -0.0460526 
0.739766 0.159528 -0.18816 
0.706451 -0.0826715 -0.208552 
-0.0826715 0.706451 -0.208552 
0.159528 0.739766 -0.18816 
0.243981 -0.545143 -0.208552 
-0.545143 0.243981 -0.208552 
0.00178113 -0.578455 -0.192272 
-0.578459 0.00178108 -0.192272 
0.712537 0.150478 -0.0580168 
0.150478 0.712537 -0.0580168 
-0.0644315 0.688213 -0.0403116 
0.688213 -0.0644315 -0.0403116 
-0.526901 0.225741 -0.0403116 
0.225741 -0.526901 -0.0403116 
-0.5512 0.010878 -0.0544421 
0.010878 -0.5512 -0.0544421 
0.159528 0.739766 -0.0864989 
0.739766 0.159528 -0.0864989 
-0.0826715 0.706451 -0.0661052 
-0.545143 0.243981 -0.0661052 
-0.578459 0.00178108 -0.0823873 
0.00178113 -0.578455 -0.0823873 
0.243981 -0.545143 -0.0661052 
0.706451 -0.0826715 -0.0661052 
-0.298528 0.460069 -0.0428905 
-0.387703 0.370895 -0.0428905 
-0.401364 0.384556 -0.0427558 
-0.312189 0.473731 -0.0427558 
-0.294539 0.547931 0.253223 
-0.280878 0.534272 0.25361 
-0.475566 0.366905 0.253223 
-0.461905 0.353244 0.25361 
0.46064 -0.299097 -0.0428905 
0.385124 -0.401933 -0.0427558 
0.371465 -0.388272 -0.0428905 
0.474301 -0.312758 -0.0427558 
0.548501 -0.295107 0.253223 
0.53484 -0.281446 0.25361 
0.367474 -0.476133 0.253223 
0.353815 -0.462471 0.25361 
3 0 1 2 
3 2 3 0 
3 4 5 6 
3 6 7 4 
3 0 3 5 
3 5 4 0 
3 3 2 6 
3 6 5 3 
3 2 1 7 
3 7 6 2 
3 1 0 4 
3 4 7 1 
3 8 9 10 
3 8 10 11 
3 9 12 13 
3 9 13 10 
3 12 14 15 
3 12 15 13 
3 14 16 17 
3 14 17 15 
3 16 18 19 
3 16 19 17 
3 18 20 21 
3 18 21 19 
3 20 22 23 
3 20 23 21 
3 22 24 25 
3 22 25 23 
3 24 26 27 
3 24 27 25 
3 26 28 29 
3 26 29 27 
3 28 30 31 
3 28 31 29 
3 30 32 33 
3 30 33 31 
3 32 34 35 
3 32 35 33 
3 34 36 37 
3 34 37 35 
3 36 8 11 
3 36 11 37 
3 36 9 8 
3 34 9 36 
3 18 22 20 
3 16 22 18 
3 12 16 14 
3 9 16 12 
3 22 26 24 
3 22 28 26 
3 28 32 30 
3 28 34 32 
3 34 16 9 
3 28 16 34 
3 22 16 28 
3 37 11 10 
3 35 37 10 
3 19 21 23 
3 17 19 23 
3 13 15 17 
3 10 13 17 
3 23 25 27 
3 23 27 29 
3 29 31 33 
3 29 33 35 
3 35 10 17 
3 29 35 17 
3 23 29 17 
3 38 39 40 
3 40 41 38 
3 42 43 44 
3 44 45 42 
3 38 41 43 
3 43 42 38 
3 41 40 44 
3 44 43 41 
3 40 39 45 
3 45 44 40 
3 39 38 42 
3 42 45 39 
3 46 47 48 
3 46 48 49 
3 47 50 51 
3 47 51 48 
3 50 46 49 
3 50 49 51 
3 52 53 54 
3 54 55 52 
3 53 56 57 
3 57 54 53 
3 56 58 59 
3 59 57 56 
3 60 61 62 
3 62 63 60 
3 63 62 64 
3 64 65 63 
3 65 64 66 
3 66 67 65 
3 55 54 68 
3 68 69 55 
3 54 57 70 
3 70 68 54 
3 57 59 71 
3 71 70 57 
3 59 58 72 
3 72 71 59 
3 58 56 73 
3 73 72 58 
3 56 53 74 
3 74 73 56 
3 53 52 75 
3 75 74 53 
3 76 77 78 
3 78 79 76 
3 77 80 81 
3 81 78 77 
3 80 82 83 
3 83 81 80 
3 84 85 86 
3 86 87 84 
3 87 86 88 
3 88 89 87 
3 89 88 90 
3 90 91 89 
3 76 79 92 
3 92 93 76 
3 79 78 94 
3 94 92 79 
3 78 81 95 
3 95 94 78 
3 81 83 96 
3 96 95 81 
3 83 82 97 
3 97 96 83 
3 82 80 98 
3 98 97 82 
3 80 77 99 
3 99 98 80 
3 77 76 93 
3 93 99 77 
3 84 93 85 
3 92 85 93 
3 85 92 86 
3 94 86 92 
3 93 84 99 
3 87 99 84 
3 86 94 88 
3 95 88 94 
3 99 87 98 
3 89 98 87 
3 88 95 90 
3 96 90 95 
3 97 91 96 
3 90 96 91 
3 98 89 97 
3 91 97 89 
3 61 69 62 
3 68 62 69 
3 75 60 74 
3 63 74 60 
3 62 68 64 
3 70 64 68 
3 74 63 73 
3 65 73 63 
3 64 70 66 
3 71 66 70 
3 72 67 71 
3 66 71 67 
3 73 65 72 
3 67 72 65 
3 100 101 102 
3 102 103 100 
3 100 103 104 
3 104 105 100 
3 103 102 106 
3 106 104 103 
3 102 101 107 
3 107 106 102 
3 101 100 105 
3 105 107 101 
3 108 109 110 
3 109 108 111 
3 108 112 111 
3 112 108 113 
3 111 114 109 
3 114 111 112 
3 109 115 110 
3 115 109 114 
3 110 113 108 
3 113 110 115 
